<?xml version="1.0" encoding="UTF-8"?><svg xmlns="http://www.w3.org/2000/svg" viewBox="0 0 24 24"><defs><style>.v{fill:#231f20;}</style></defs><g id="a"/><g id="b"/><g id="c"/><g id="d"/><g id="e"/><g id="f"/><g id="g"/><g id="h"/><g id="i"/><g id="j"/><g id="k"/><g id="l"/><g id="m"/><g id="n"><path class="v" d="M15.53,17.47c-.29-.29-.77-.29-1.06,0l-1.72,1.72V3c0-.41-.34-.75-.75-.75s-.75,.34-.75,.75V19.19l-1.72-1.72c-.29-.29-.77-.29-1.06,0s-.29,.77,0,1.06l3,3c.07,.07,.15,.12,.24,.16,.09,.04,.19,.06,.29,.06s.19-.02,.29-.06c.09-.04,.17-.09,.24-.16l3-3c.29-.29,.29-.77,0-1.06Z"/></g><g id="o"/><g id="p"/><g id="q"/><g id="r"/><g id="s"/><g id="t"/><g id="u"/></svg>