<?xml version="1.0" encoding="UTF-8"?><svg xmlns="http://www.w3.org/2000/svg" viewBox="0 0 24 24"><g id="a"/><g id="b"/><g id="c"/><g id="d"/><g id="e"/><g id="f"/><g id="g"/><g id="h"/><g id="i"/><g id="j"/><g id="k"/><g id="l"/><g id="m"/><g id="n"/><g id="o"/><g id="p"/><g id="q"/><g id="r"/><g id="s"><g><path d="M9.28,5.3c-.82-.19-1.62,.2-2.03,1.01L2.48,15.72c-.34,.67-.31,1.49,.09,2.13,.35,.56,.93,.9,1.55,.9h4.76c1.03,0,1.87-.92,1.87-2.04V7.29c0-.98-.59-1.78-1.47-1.99Zm-.03,11.41c0,.32-.19,.54-.37,.54H4.12c-.13,0-.22-.1-.27-.18-.09-.15-.15-.41-.02-.67L8.59,6.98c.08-.15,.17-.23,.28-.23,.02,0,.04,0,.06,0,.15,.04,.32,.2,.32,.53v9.42Z"/><path d="M21.51,15.72l-4.76-9.42c-.41-.81-1.21-1.2-2.03-1.01-.88,.21-1.47,1.01-1.47,1.99v9.42c0,1.13,.84,2.04,1.87,2.04h4.76c.63,0,1.2-.34,1.55-.9,.39-.64,.42-1.46,.08-2.13Zm-1.36,1.34c-.04,.07-.13,.18-.27,.18h-4.76c-.17,0-.37-.22-.37-.54V7.29c0-.34,.17-.5,.32-.53,.02,0,.04,0,.06,0,.11,0,.21,.08,.28,.23l4.76,9.42c.13,.25,.07,.52-.02,.67Z"/></g></g><g id="t"/><g id="u"/></svg>