<svg xmlns="http://www.w3.org/2000/svg" viewBox="0 0 32 32"><g id="message"><path d="M28,13.09,6.47,4.25A3.23,3.23,0,0,0,3,4.92,3.07,3.07,0,0,0,2.2,8.25L5,15.81A1.06,1.06,0,0,0,5,16a1.06,1.06,0,0,0,0,.19L2.2,23.75A3.07,3.07,0,0,0,3,27.08,3.22,3.22,0,0,0,5.21,28a3.29,3.29,0,0,0,1.26-.25L28,18.91a3.13,3.13,0,0,0,0-5.82ZM4.35,6.36A1.24,1.24,0,0,1,5.22,6a1.26,1.26,0,0,1,.49.1l21.56,8.84.1.06H6.87L4.08,7.54A1.06,1.06,0,0,1,4.35,6.36ZM5.71,25.9a1.24,1.24,0,0,1-1.36-.26,1.06,1.06,0,0,1-.27-1.18L6.87,17h20.5l-.11.06Z"/></g></svg>