<svg xmlns="http://www.w3.org/2000/svg" viewBox="0 0 32 32"><g id="cpu"><path d="M26,10.86a.34.34,0,0,0,0-.1L24.33,4.21A2.9,2.9,0,0,0,21.51,2h-11A2.9,2.9,0,0,0,7.67,4.2L6,10.76a.34.34,0,0,0,0,.1A.7.7,0,0,0,6,11V26.9A3.1,3.1,0,0,0,9.1,30H22.9A3.1,3.1,0,0,0,26,26.9V11A.7.7,0,0,0,26,10.86ZM9.61,4.69A.9.9,0,0,1,10.49,4h11a.9.9,0,0,1,.88.69L23.72,10H8.28ZM24,26.9A1.1,1.1,0,0,1,22.9,28H9.1A1.1,1.1,0,0,1,8,26.9V12H24Z"/><path d="M11,16H21a1,1,0,0,0,0-2H11a1,1,0,0,0,0,2Z"/><path d="M11,21H21a1,1,0,0,0,0-2H11a1,1,0,0,0,0,2Z"/><path d="M21,24H16a1,1,0,0,0,0,2h5a1,1,0,0,0,0-2Z"/><path d="M11,24h0a1,1,0,1,0,1,1A1,1,0,0,0,11,24Z"/></g></svg>