<?xml version="1.0" encoding="utf-8"?>
<!-- Generator: Adobe Illustrator 28.0.0, SVG Export Plug-In . SVG Version: 6.00 Build 0)  -->
<svg version="1.1" id="Layer_1" xmlns="http://www.w3.org/2000/svg" xmlns:xlink="http://www.w3.org/1999/xlink" x="0px" y="0px"
	 viewBox="0 0 32 32" style="enable-background:new 0 0 32 32;" xml:space="preserve">
<g id="mobile">
	<path d="M20.4,3.8h-8.8c-2,0-3.7,1.7-3.7,3.7l0,0v16.9c0,2,1.7,3.7,3.7,3.7h8.8c2,0,3.7-1.7,3.7-3.7V7.5
		C24.1,5.5,22.4,3.8,20.4,3.8z M21.8,24.5c0,0.8-0.6,1.4-1.4,1.4h-8.7c-0.8,0-1.4-0.6-1.4-1.4V7.5c0-0.8,0.6-1.4,1.4-1.4h8.8
		c0.8,0,1.4,0.6,1.4,1.4L21.8,24.5L21.8,24.5z"/>
	<path d="M17.2,22.4h-2.3c-0.7,0-1.2,0.5-1.2,1.2c0,0.7,0.5,1.2,1.2,1.2h2.3c0.7,0,1.2-0.5,1.2-1.2C18.4,22.9,17.8,22.4,17.2,22.4z"
		/>
</g>
</svg>
